<svg width="16" height="16" viewBox="0 0 16 16" fill="none" xmlns="http://www.w3.org/2000/svg">
<g clip-path="url(#clip0_1464_14656)">
<path d="M5.33398 5.33301V3.46634C5.33398 2.71961 5.33398 2.34623 5.47931 2.06102C5.60714 1.81013 5.81111 1.60616 6.062 1.47833C6.34721 1.33301 6.72058 1.33301 7.46732 1.33301H12.534C13.2807 1.33301 13.6541 1.33301 13.9393 1.47833C14.1902 1.60616 14.3942 1.81013 14.522 2.06102C14.6673 2.34623 14.6673 2.71961 14.6673 3.46634V8.53301C14.6673 9.27974 14.6673 9.65314 14.522 9.93834C14.3942 10.1892 14.1902 10.3932 13.9393 10.521C13.6541 10.6663 13.2807 10.6663 12.534 10.6663H10.6673M3.46732 14.6663H8.53398C9.28072 14.6663 9.65412 14.6663 9.93932 14.521C10.1902 14.3932 10.3942 14.1892 10.522 13.9383C10.6673 13.6531 10.6673 13.2797 10.6673 12.533V7.46634C10.6673 6.71961 10.6673 6.34623 10.522 6.06102C10.3942 5.81013 10.1902 5.60616 9.93932 5.47833C9.65412 5.33301 9.28072 5.33301 8.53398 5.33301H3.46732C2.72058 5.33301 2.34721 5.33301 2.062 5.47833C1.81111 5.60616 1.60714 5.81013 1.47931 6.06102C1.33398 6.34623 1.33398 6.71961 1.33398 7.46634V12.533C1.33398 13.2797 1.33398 13.6531 1.47931 13.9383C1.60714 14.1892 1.81111 14.3932 2.062 14.521C2.34721 14.6663 2.72058 14.6663 3.46732 14.6663Z" stroke="#EEEEEE" stroke-width="2" stroke-linecap="round" stroke-linejoin="round"/>
</g>
<defs>
<clipPath id="clip0_1464_14656">
<rect width="16" height="16" fill="white"/>
</clipPath>
</defs>
</svg>
