<svg width="20" height="20" viewBox="0 0 20 20" fill="none" xmlns="http://www.w3.org/2000/svg">
<rect width="20" height="20" rx="10" fill="white"/>
<g clip-path="url(#clip0_1464_14666)">
<path d="M10 9.99962C10 8.86076 10.8309 7.9375 11.8559 7.9375C12.8809 7.9375 13.7118 8.86076 13.7118 9.99962C13.7118 11.1385 12.8809 12.0617 11.8559 12.0617C10.8309 12.0617 10 11.1385 10 9.99962Z" fill="#1ABCFE"/>
<path d="M6.28906 14.1246C6.28906 12.9858 7.11998 12.0625 8.14497 12.0625H10.0009V14.1246C10.0009 15.2635 9.16997 16.1867 8.14497 16.1867C7.11998 16.1867 6.28906 15.2635 6.28906 14.1246Z" fill="#0ACF83"/>
<path d="M10 3.81372V7.93796H11.8559C12.8809 7.93796 13.7118 7.01472 13.7118 5.87584C13.7118 4.73697 12.8809 3.81372 11.8559 3.81372H10Z" fill="#FF7262"/>
<path d="M6.28906 5.8756C6.28906 7.01448 7.11998 7.93771 8.14497 7.93771H10.0009V3.81348H8.14497C7.11998 3.81348 6.28906 4.73672 6.28906 5.8756Z" fill="#F24E1E"/>
<path d="M6.28906 9.99962C6.28906 11.1385 7.11998 12.0617 8.14497 12.0617H10.0009V7.9375H8.14497C7.11998 7.9375 6.28906 8.86076 6.28906 9.99962Z" fill="#A259FF"/>
</g>
<defs>
<clipPath id="clip0_1464_14666">
<rect width="7.5" height="12.5" fill="white" transform="translate(6.25 3.75)"/>
</clipPath>
</defs>
</svg>
