<svg width="199" height="20" viewBox="0 0 199 20" fill="none" xmlns="http://www.w3.org/2000/svg">
<path d="M12.632 10.168L13.016 9.28C14.424 9.312 15.576 9.528 16.472 9.928C17.384 10.328 18.056 10.88 18.488 11.584C18.936 12.272 19.16 13.064 19.16 13.96C19.16 14.936 18.936 15.808 18.488 16.576C18.04 17.328 17.368 17.92 16.472 18.352C15.592 18.784 14.488 19 13.16 19H0.2L1.592 9.76L0.2 0.999999H12.704C14.368 0.999999 15.656 1.392 16.568 2.176C17.496 2.944 17.96 4.008 17.96 5.368C17.96 6.12 17.784 6.84 17.432 7.528C17.08 8.216 16.52 8.8 15.752 9.28C14.984 9.744 13.944 10.04 12.632 10.168ZM4.664 17.896L2.936 15.76H12.08C12.864 15.76 13.472 15.576 13.904 15.208C14.352 14.824 14.576 14.288 14.576 13.6C14.576 12.912 14.328 12.368 13.832 11.968C13.352 11.552 12.632 11.344 11.672 11.344H4.184V8.176H11.096C11.752 8.176 12.296 7.992 12.728 7.624C13.16 7.24 13.376 6.72 13.376 6.064C13.376 5.536 13.184 5.104 12.8 4.768C12.432 4.416 11.904 4.24 11.216 4.24H2.96L4.664 2.104L5.936 9.76L4.664 17.896ZM36.8726 8.32V11.68H23.8406V8.32H36.8726ZM26.9126 10L25.7126 17.44L23.8166 15.28H37.6406V19H21.1766L22.5686 10L21.1766 0.999999H37.5206V4.72H23.8166L25.7126 2.56L26.9126 10ZM60.0899 11.56C59.9139 13.112 59.3779 14.48 58.4819 15.664C57.5859 16.832 56.4019 17.744 54.9299 18.4C53.4579 19.056 51.7859 19.384 49.9139 19.384C47.8339 19.384 46.0099 18.992 44.4419 18.208C42.8899 17.424 41.6819 16.328 40.8179 14.92C39.9539 13.512 39.5219 11.872 39.5219 10C39.5219 8.128 39.9539 6.488 40.8179 5.08C41.6819 3.672 42.8899 2.576 44.4419 1.792C46.0099 1.008 47.8339 0.615999 49.9139 0.615999C51.7859 0.615999 53.4579 0.943999 54.9299 1.6C56.4019 2.256 57.5859 3.168 58.4819 4.336C59.3779 5.504 59.9139 6.872 60.0899 8.44H55.5299C55.3699 7.624 55.0419 6.928 54.5459 6.352C54.0659 5.776 53.4259 5.336 52.6259 5.032C51.8419 4.712 50.9299 4.552 49.8899 4.552C48.6899 4.552 47.6579 4.776 46.7939 5.224C45.9299 5.656 45.2659 6.28 44.8019 7.096C44.3379 7.912 44.1059 8.88 44.1059 10C44.1059 11.12 44.3379 12.088 44.8019 12.904C45.2659 13.72 45.9299 14.352 46.7939 14.8C47.6579 15.232 48.6899 15.448 49.8899 15.448C50.9299 15.448 51.8419 15.296 52.6259 14.992C53.4259 14.688 54.0659 14.248 54.5459 13.672C55.0419 13.096 55.3699 12.392 55.5299 11.56H60.0899ZM62.627 19V0.999999H67.139V15.352L65.915 14.44L76.571 0.999999H81.371L66.707 19H62.627ZM71.243 10.288L74.507 7.48L81.611 19H76.475L71.243 10.288ZM88.9004 19V0.999999H93.4124V15.352L92.1884 14.44L102.844 0.999999H107.644L92.9804 19H88.9004ZM97.5164 10.288L100.78 7.48L107.884 19H102.748L97.5164 10.288ZM112.789 15.376V11.704H125.221V15.376H112.789ZM122.053 0.999999L130.357 19H125.533L118.405 2.896H119.797L112.693 19H107.845L116.173 0.999999H122.053ZM148.87 15.904L147.406 16.168V0.999999H151.798V19H146.086L135.118 3.832L136.582 3.568V19H132.19V0.999999H138.07L148.87 15.904ZM171.979 15.904L170.515 16.168V0.999999H174.907V19H169.195L158.227 3.832L159.691 3.568V19H155.299V0.999999H161.179L171.979 15.904ZM188.176 19.384C186.064 19.384 184.208 18.992 182.608 18.208C181.024 17.424 179.792 16.328 178.912 14.92C178.032 13.512 177.592 11.872 177.592 10C177.592 8.128 178.032 6.488 178.912 5.08C179.792 3.672 181.024 2.576 182.608 1.792C184.208 1.008 186.064 0.615999 188.176 0.615999C190.288 0.615999 192.136 1.008 193.72 1.792C195.32 2.576 196.56 3.672 197.44 5.08C198.336 6.488 198.784 8.128 198.784 10C198.784 11.872 198.336 13.512 197.44 14.92C196.56 16.328 195.32 17.424 193.72 18.208C192.136 18.992 190.288 19.384 188.176 19.384ZM188.176 15.328C189.424 15.328 190.496 15.12 191.392 14.704C192.288 14.272 192.976 13.656 193.456 12.856C193.952 12.056 194.2 11.104 194.2 10C194.2 8.896 193.952 7.944 193.456 7.144C192.976 6.344 192.288 5.736 191.392 5.32C190.496 4.888 189.424 4.672 188.176 4.672C186.944 4.672 185.88 4.888 184.984 5.32C184.088 5.736 183.392 6.344 182.896 7.144C182.4 7.944 182.152 8.896 182.152 10C182.152 11.104 182.4 12.056 182.896 12.856C183.392 13.656 184.088 14.272 184.984 14.704C185.88 15.12 186.944 15.328 188.176 15.328Z" fill="white"/>
</svg>
